# xmcd CD database file
#
# Track frame offsets:
#	183
#	11958
#	27518
#	38358
#	52040
#	62220
#	75660
#	91660
#	99673
#	113875
#	124298
#	140278
#	157045
#	181833
#	193683
#	209278
#	222070
#	232483
#	243670
#	258878
#
# Disc length: 3627 seconds
#
# Revision: 2
# Processed by: cddbd v1.5.2PL0 Copyright (c) Steve Scherf et al.
# Submitted via: CDex 1.50
#
DISCID=1e0e2914
DTITLE=Frank Sinatra - Legendary Concerts Vol. 2
DYEAR=1990
DGENRE=Blues
TTITLE0=Day In, Day Out
TTITLE1=Moonlight In Vermont
TTITLE2=Imagination
TTITLE3=The Moon Was Yellow
TTITLE4=Chicago
TTITLE5=Without A Song
TTITLE6=Willow Weep For Me
TTITLE7=Too Marvelous For Words
TTITLE8=Embraceable You
TTITLE9=I Could Have Danced All Night
TTITLE10=Night And Day
TTITLE11=Ol' Man River
TTITLE12=One For My Baby
TTITLE13=April In Paris
TTITLE14=In The Still Of The Night
TTITLE15=The Second Time Around
TTITLE16=Dancing In The Dark
TTITLE17=All The Way
TTITLE18=Angel Eyes
TTITLE19=Come Fly With Me
EXTD=YEAR: 1990
EXTT0=
EXTT1=
EXTT2=
EXTT3=
EXTT4=
EXTT5=
EXTT6=
EXTT7=
EXTT8=
EXTT9=
EXTT10=
EXTT11=
EXTT12=
EXTT13=
EXTT14=
EXTT15=
EXTT16=
EXTT17=
EXTT18=
EXTT19=
PLAYORDER=
